:FULLY-SPECIFIED
:FORCE-ALL-JOINTS-BE-3DOF
:DEGREES
178
root 8.23063 16.6368 -12.1359 7.51818 6.87274 -2.1507
lfemur -18.8939 5.9471 -14.7889
ltibia 46.4484 0 0
lfoot -3.54823 12.6202 0
ltoes -14.5655 0 0
rfemur -17.8163 2.40802 26.1932
rtibia 24.0007 0 0
rfoot -14.6531 2.03503 0
rtoes -12.9895 0 0
lowerback -5.0645 -0.460379 0.558356
upperback -1.34039 -0.712218 3.46823
thorax 1.53932 -0.350475 3.24293
lowerneck -17.9386 -7.04103 -14.5392
upperneck 14.6612 -8.68853 14.8071
head 8.86661 -3.53035 6.32628
lclavicle -9.08831e-15 1.67561e-14 0
lhumerus -46.7532 -11.917 96.8228
lradius 26.9406 0 0
lwrist 5.8799 0 0
lhand -4.41696 -20.3308 0
lfingers 7.12502 0 0
lthumb 21.3467 8.43107 0
rclavicle -9.08831e-15 1.67561e-14 0
rhumerus -42.1667 10.0884 -81.439
rradius 40.4251 0 0
rwrist -21.567 0 0
rhand -29.8649 -27.4072 0
rfingers 7.12502 0 0
rthumb -3.18677 -57.3518 0
179
root 8.23147 16.6343 -12.0098 7.51376 6.68773 -2.23205
lfemur -19.73 5.77542 -14.8227
ltibia 45.6604 0 0
lfoot -3.95477 12.5791 0
ltoes -14.6517 0 0
rfemur -17.1006 2.49469 26.3475
rtibia 23.5655 0 0
rfoot -14.7705 2.12632 0
rtoes -12.8562 0 0
lowerback -5.10174 -0.371776 0.616839
upperback -1.31679 -0.599326 3.46672
thorax 1.57948 -0.294053 3.21664
lowerneck -17.8843 -7.02797 -14.5369
upperneck 14.6666 -8.68059 14.8159
head 8.85774 -3.52786 6.3311
lclavicle -7.83015e-15 1.62712e-14 0
lhumerus -46.8525 -11.8551 96.7957
lradius 26.9639 0 0
lwrist 5.99746 0 0
lhand -4.69297 -20.4609 0
lfingers 7.12502 0 0
lthumb 21.0814 8.32778 0
rclavicle -7.83015e-15 1.62712e-14 0
rhumerus -41.9362 10.1242 -81.4237
rradius 40.8483 0 0
rwrist -21.7632 0 0
rhand -29.9839 -27.4659 0
rfingers 7.12502 0 0
rthumb -3.30164 -57.4083 0
180
root 8.23232 16.6317 -11.8836 7.50934 6.50273 -2.31339
lfemur -20.5661 5.60374 -14.8566
ltibia 44.8724 0 0
lfoot -4.36131 12.5381 0
ltoes -14.738 0 0
rfemur -16.3849 2.58137 26.5018
rtibia 23.1302 0 0
rfoot -14.888 2.21761 0
rtoes -12.7229 0 0
lowerback -5.13898 -0.283172 0.675323
upperback -1.29319 -0.486434 3.46522
thorax 1.61964 -0.237631 3.19034
lowerneck -17.83 -7.01492 -14.5345
upperneck 14.6719 -8.67265 14.8248
head 8.84886 -3.52536 6.33593
lclavicle -6.57199e-15 1.57864e-14 0
lhumerus -46.9517 -11.7932 96.7686
lradius 26.9872 0 0
lwrist 6.11502 0 0
lhand -4.96899 -20.5911 0
lfingers 7.12502 0 0
lthumb 20.816 8.22449 0
rclavicle -6.57199e-15 1.57864e-14 0
rhumerus -41.7057 10.16 -81.4084
rradius 41.2715 0 0
rwrist -21.9594 0 0
rhand -30.1028 -27.5245 0
rfingers 7.12502 0 0
rthumb -3.4165 -57.4647 0
181
root 8.23316 16.6292 -11.7575 7.50492 6.31772 -2.39474
lfemur -21.4022 5.43205 -14.8904
ltibia 44.0844 0 0
lfoot -4.76785 12.497 0
ltoes -14.8242 0 0
rfemur -15.6691 2.66804 26.6561
rtibia 22.695 0 0
rfoot -15.0054 2.30891 0
rtoes -12.5896 0 0
lowerback -5.17621 -0.194569 0.733807
upperback -1.26958 -0.373543 3.46371
thorax 1.65981 -0.181209 3.16404
lowerneck -17.7758 -7.00186 -14.5322
upperneck 14.6773 -8.66472 14.8336
head 8.83998 -3.52287 6.34075
lclavicle -5.31382e-15 1.53016e-14 0
lhumerus -47.051 -11.7312 96.7415
lradius 27.0105 0 0
lwrist 6.23258 0 0
lhand -5.245 -20.7213 0
lfingers 7.12502 0 0
lthumb 20.5507 8.1212 0
rclavicle -5.31382e-15 1.53016e-14 0
rhumerus -41.4752 10.1958 -81.3931
rradius 41.6948 0 0
rwrist -22.1556 0 0
rhand -30.2218 -27.5832 0
rfingers 7.12502 0 0
rthumb -3.53137 -57.5212 0
182
root 8.23401 16.6267 -11.6314 7.5005 6.13272 -2.47609
lfemur -22.2383 5.26037 -14.9242
ltibia 43.2964 0 0
lfoot -5.17439 12.4559 0
ltoes -14.9104 0 0
rfemur -14.9534 2.75472 26.8104
rtibia 22.2597 0 0
rfoot -15.1229 2.4002 0
rtoes -12.4563 0 0
lowerback -5.21345 -0.105966 0.79229
upperback -1.24598 -0.260651 3.46221
thorax 1.69997 -0.124787 3.13775
lowerneck -17.7215 -6.98881 -14.5299
upperneck 14.6827 -8.65678 14.8425
head 8.83111 -3.52038 6.34558
lclavicle -4.05566e-15 1.48167e-14 0
lhumerus -47.1502 -11.6693 96.7144
lradius 27.0338 0 0
lwrist 6.35014 0 0
lhand -5.52102 -20.8514 0
lfingers 7.12502 0 0
lthumb 20.2853 8.01791 0
rclavicle -4.05566e-15 1.48167e-14 0
rhumerus -41.2447 10.2317 -81.3778
rradius 42.118 0 0
rwrist -22.3518 0 0
rhand -30.3407 -27.6418 0
rfingers 7.12502 0 0
rthumb -3.64623 -57.5776 0
183
root 8.23485 16.6242 -11.5053 7.49608 5.94771 -2.55744
lfemur -23.0744 5.08868 -14.958
ltibia 42.5084 0 0
lfoot -5.58094 12.4149 0
ltoes -14.9966 0 0
rfemur -14.2377 2.84139 26.9647
rtibia 21.8245 0 0
rfoot -15.2403 2.49149 0
rtoes -12.3229 0 0
lowerback -5.25069 -0.0173629 0.850774
upperback -1.22238 -0.147759 3.4607
thorax 1.74013 -0.0683649 3.11145
lowerneck -17.6672 -6.97576 -14.5276
upperneck 14.688 -8.64884 14.8513
head 8.82223 -3.51789 6.3504
lclavicle -2.7975e-15 1.43319e-14 0
lhumerus -47.2495 -11.6074 96.6872
lradius 27.057 0 0
lwrist 6.4677 0 0
lhand -5.79704 -20.9816 0
lfingers 7.12502 0 0
lthumb 20.02 7.91461 0
rclavicle -2.7975e-15 1.43319e-14 0
rhumerus -41.0141 10.2675 -81.3625
rradius 42.5413 0 0
rwrist -22.548 0 0
rhand -30.4597 -27.7004 0
rfingers 7.12502 0 0
rthumb -3.7611 -57.6341 0
